<svg width="25" height="25" fill="none" xmlns="http://www.w3.org/2000/svg"><g clip-path="url(#clip0_5_1331)" fill="#fff"><path d="M3.173 21.831A5.448 5.448 0 01.43 19.99a3.364 3.364 0 004.58 4.58 5.428 5.428 0 01-1.838-2.738zm9.88-11.277l-1.304 1.305c.025.455.028.916.004 1.38a13.023 13.023 0 011.392.009l1.3-1.301 1.85 1.85c.86.245 1.662.551 2.375.882C22.756 10.424 26.8 3.49 24.155.846c-2.642-2.642-9.562 1.389-13.817 5.47.338.723.645 1.536.888 2.41l1.827 1.828zm4.846 2.062l-2.06-2.062 1.392-1.392 1.94 1.938a28.87 28.87 0 01-1.272 1.516zm2.439-3.132L18.622 7.77l1.392-1.393 1.38 1.38c-.31.56-.663 1.14-1.056 1.728zm2.677-6.107c-.051.655-.29 1.518-.705 2.51l-.902-.902 1.607-1.608zm-1.393-1.393L20.015 3.59l-.901-.902c.99-.414 1.854-.654 2.508-.705zm-4.38 1.62l1.38 1.38-1.393 1.393-1.715-1.716a24.61 24.61 0 011.729-1.057zM13.899 5.83l1.94 1.94-1.393 1.392L12.384 7.1c.5-.451 1.008-.875 1.514-1.27zm-1.529 8.53c-.241 0-.485.008-.73.024a10.604 10.604 0 01-3.053 6.062 5.439 5.439 0 01-4.13 1.598c.211.476.511.922.901 1.312a4.26 4.26 0 003.033 1.256 4.503 4.503 0 003.107-1.256c5.81-5.525 10.765-4.444 9.07-6.14-1.04-1.036-4.451-2.856-8.197-2.856z"/><path d="M4.712 20.913a4.327 4.327 0 003.07-1.27c5.478-5.48 1.696-13.514 0-15.21-.23-.23-.409-.337-.56-.337-.964 0-.803 4.383-5.58 9.406-1.652 1.738-1.696 4.445 0 6.14a4.33 4.33 0 003.07 1.271z"/></g><defs><clipPath id="clip0_5_1331"><path fill="#fff" d="M0 0h25v25H0z"/></clipPath></defs></svg>