<svg width="21" height="25" fill="none" xmlns="http://www.w3.org/2000/svg"><path d="M18.968 21.054l-.645-.757v-7.891c0-3.562-2.401-6.573-5.67-7.5a3.75 3.75 0 001.6-3.07V0H6.747v1.835a3.75 3.75 0 001.6 3.071c-3.269.928-5.67 3.938-5.67 7.5v7.89l-.645.758A5.338 5.338 0 00.76 24.512V25h19.482v-.488a5.337 5.337 0 00-1.273-3.458zm-5.718-4.537l.41.035.034.41c.006.063.124 1.563-.774 2.461-.494.494-1.169.68-1.688.747v1.318H9.768V20.17c-.52-.067-1.194-.253-1.688-.747-.898-.898-.78-2.398-.774-2.462l.035-.409.41-.035c.053-.005 1.14-.09 2.017.432v-.651c-.52-.067-1.194-.254-1.688-.747-.898-.899-.78-2.399-.774-2.462l.035-.41.41-.034c.053-.005 1.14-.09 2.017.431v-.578c-.345-.41-.775-1.079-.775-1.858 0-1.27 1.144-2.248 1.193-2.289l.314-.264.315.264c.048.041 1.192 1.019 1.192 2.289 0 .78-.43 1.448-.774 1.858v.578c.876-.521 1.963-.436 2.017-.431l.41.035.034.409c.006.063.124 1.563-.774 2.462-.494.493-1.169.68-1.688.747v.65c.877-.521 1.964-.436 2.018-.431z" fill="#fff"/></svg>