<svg width="94" height="120" fill="none" xmlns="http://www.w3.org/2000/svg"><path d="M87.645 101.058l-3.096-3.635V59.548C84.55 42.453 73.025 28 57.338 23.55c4.638-3.263 7.678-8.652 7.678-14.741v-8.81H28.985v8.81c0 6.089 3.04 11.478 7.678 14.74C20.976 28.002 9.451 42.454 9.451 59.548v37.877l-3.096 3.634a25.62 25.62 0 00-6.11 16.598V120h93.51v-2.344a25.617 25.617 0 00-6.11-16.598zM60.2 79.281l1.964.169.17 1.965c.026.304.592 7.504-3.719 11.816-2.369 2.369-5.609 3.264-8.099 3.586v6.325h-7.031v-6.325c-2.49-.322-5.73-1.217-8.1-3.586-4.31-4.312-3.744-11.512-3.718-11.816l.17-1.965 1.964-.17c.258-.022 5.475-.431 9.684 2.073V78.23c-2.49-.322-5.73-1.218-8.1-3.587-4.31-4.31-3.744-11.511-3.718-11.816l.17-1.964 1.964-.17c.258-.022 5.475-.431 9.684 2.073v-2.775c-1.652-1.969-3.72-5.178-3.72-8.92 0-6.097 5.493-10.787 5.726-10.984l1.51-1.27 1.508 1.27c.234.196 5.726 4.887 5.726 10.984 0 3.742-2.067 6.951-3.719 8.92v2.775c4.21-2.504 9.426-2.095 9.684-2.073l1.964.17.17 1.964c.026.305.592 7.505-3.719 11.816-2.369 2.37-5.609 3.264-8.099 3.587v3.123c4.21-2.504 9.425-2.094 9.684-2.072z" fill="#fff"/></svg>