<svg width="28" height="28" fill="none" xmlns="http://www.w3.org/2000/svg"><path d="M26.983 13.64l-1.265-3.57a.82.82 0 00-.942-.53l-2.363.497L22.407.82a.82.82 0 00-.82-.82H17.39a.82.82 0 00-.82.825l.007 1.343-2.024-1.94A.82.82 0 0013.985 0h-3.828v13.125a.82.82 0 01-1.64 0V0H5.89v3.773a.82.82 0 01-1.64 0V0H1.79a.82.82 0 00-.82.82v26.36c0 .453.367.82.82.82h15.695v-7.656a.82.82 0 111.64 0V28h2.462a.82.82 0 00.82-.82v-9.278l4.306-3.34a.82.82 0 00.27-.921zm-21.092 2a.82.82 0 11-1.64 0V7.767a.82.82 0 011.64 0v7.875zm4.266 8.258a.82.82 0 11-1.64 0V17.61a.82.82 0 111.64 0v6.29zm4.703-6.015a.82.82 0 01-1.64 0v-7.164a.82.82 0 111.64 0v7.164zm0-11.211a.82.82 0 01-1.64 0v-1.64a.82.82 0 011.64 0v1.64zm4.266 9.844a.82.82 0 11-1.64 0v-3.72a.82.82 0 111.64 0v3.72z" fill="#fff"/></svg>