<svg width="57" height="57" fill="none" xmlns="http://www.w3.org/2000/svg"><path d="M36.148 15.318a10.424 10.424 0 001.478-5.285c.03-4.898-3.873-8.995-8.767-9.184-5.195-.2-9.485 3.968-9.485 9.12v.045c0 1.858.498 3.686 1.441 5.287l7.244 12.302a.43.43 0 00.74.003l7.35-12.289zm-13.36-5.13a5.633 5.633 0 015.626-5.626 5.633 5.633 0 015.627 5.626 5.633 5.633 0 01-5.627 5.627 5.633 5.633 0 01-5.626-5.627z" fill="#fff"/><path d="M28.414 8.118c-1.141 0-2.07.929-2.07 2.07 0 1.141.929 2.07 2.07 2.07 1.142 0 2.07-.929 2.07-2.07 0-1.141-.928-2.07-2.07-2.07zm26.849 19.524h-7.7C45.211 34.091 35.54 40.53 29.342 40.96a32.53 32.53 0 01-1.891.06c-1.483.016-2.884.033-3.97.574-.606.302-1.19.808-1.806 1.343-.657.57-1.335 1.16-2.173 1.64-1.301.747-2.868 1.133-4.535 1.133-.61 0-1.233-.052-1.862-.156-2.356-.392-4.236-1.077-5.747-2.094-1.156-.778-2.305-1.011-3.306-1.049 4.74 7.832 13.135 13.202 22.821 13.746.114-.775.351-1.88.843-3.086 1.217-2.985 3.403-5.126 6.324-6.191 3.085-1.127 5.951-1.607 8.723-2.071 3.708-.621 7.212-1.21 10.728-3.341a28.381 28.381 0 003.504-11.988 1.734 1.734 0 00-1.733-1.838z" fill="#fff"/><path d="M43.352 48.317c-2.613.437-5.314.89-8.092 1.904-3.35 1.223-4.43 4.224-4.775 5.915 7.484-.515 14.176-3.911 18.971-9.09-2.066.593-4.103.935-6.104 1.27zM2.26 38.925c1.566-.143 4.28-.303 7.085 1.585 1.08.727 2.5 1.23 4.344 1.535 1.54.256 2.976.06 4.044-.553.537-.308 1.059-.761 1.611-1.24.723-.628 1.541-1.338 2.552-1.842 1.816-.904 3.78-.927 5.514-.947a29.55 29.55 0 001.685-.051c2.479-.172 5.957-1.705 9.079-4 2.479-1.823 4.42-3.885 5.48-5.77H32.92l-2.98 4.982a1.78 1.78 0 01-1.526.866h-.007a1.778 1.778 0 01-1.526-.876l-2.928-4.972H1.738c-.999 0-1.797.841-1.734 1.838a28.392 28.392 0 002.257 9.445z" fill="#fff"/></svg>