<svg width="67" height="61" fill="none" xmlns="http://www.w3.org/2000/svg"><path d="M37.352 46.825c-1.003-.311-1.78-1.034-2.042-1.987l-.03-.108c-.241.03-.482.067-.733.067h-2.094c-.251 0-.492-.036-.734-.067l-.03.107c-.26.954-1.038 1.677-2.041 1.988.134.605.31 1.2.524 1.785h6.655c.215-.586.392-1.18.526-1.785zm14.992 3.691c2.124 0 4.038-1.149 4.875-2.926l.2-.425a9.918 9.918 0 00-.895-.228c-1.17-.236-2.078-1.04-2.37-2.098l-.029-.109c-.242.03-.483.067-.734.067h-2.094c-.251 0-.492-.036-.734-.067l-.03.107c-.29 1.06-1.198 1.863-2.368 2.099-.304.061-.597.151-.891.24l.194.414c.838 1.777 2.752 2.926 4.876 2.926zm-16.377 0H31.03a15.199 15.199 0 002.47 3.376 15.398 15.398 0 002.468-3.376zm15.33-7.626h2.094c1.731 0 3.14-1.282 3.14-2.859v-3.847a15.53 15.53 0 01-5.37-1.344l-.842-.384a1.623 1.623 0 00-.669-.144c-.824 0-1.494.61-1.494 1.36v4.36c0 1.576 1.41 2.859 3.14 2.859zm-32.956 4l-3.685 6.71-3.695-6.729c-4.576 1.254-7.82 5.16-7.82 9.56v1.71h4.187v-3.813h2.094v3.813H19.89v-2.888c0-2.408.885-4.634 2.402-6.41a11.26 11.26 0 00-3.952-1.953zM11.34 18.11h44.32L33.5 6.81 11.34 18.109zm24.254-4.766c0 1.053-.937 1.906-2.094 1.906-1.157 0-2.094-.853-2.094-1.906s.937-1.906 2.094-1.906c1.157 0 2.094.852 2.094 1.906zm-1.047 29.547c1.731 0 3.14-1.283 3.14-2.86v-3.883c-1.626-.226-3.11-.973-4.187-2.11-1.077 1.137-2.56 1.884-4.188 2.11v3.884c0 1.576 1.41 2.859 3.141 2.859h2.094z" fill="#fff"/><path d="M57.78 42.612c.073-.007.158-.013.23-.022 1.545-.178 2.709-1.395 2.709-2.832v-4.492c0-4.205-3.758-7.625-8.375-7.625-4.618 0-8.375 3.42-8.375 7.625v4.492c0 1.437 1.164 2.654 2.708 2.832.072.009.158.015.232.022a4.431 4.431 0 01-.846-2.58v-4.36c0-1.8 1.61-3.266 3.587-3.266.553 0 1.107.12 1.603.343l.844.384a13.311 13.311 0 005.481 1.18h1.047v5.718c0 .952-.316 1.836-.846 2.581z" fill="#fff"/><path d="M8.375 26.975a9.48 9.48 0 014.71-1.24h3.142c3.643 0 6.778 2.006 8.153 4.866 1.797-2.9 5.209-4.867 9.12-4.867 4.148 0 7.728 2.213 9.422 5.405 1.694-3.192 5.274-5.405 9.422-5.405 2.358 0 4.529.723 6.281 1.925v-7.643H8.375v6.96zm30.978 20.459c-.759 3.188-2.523 6.163-5.06 8.474l-.736.67-.793-.619c-2.588-2.356-4.357-5.337-5.116-8.525-3.363 1.328-5.664 4.398-5.664 7.819v2.888h4.188v-3.813h2.094v3.813h10.468v-3.813h2.094v3.813h4.188v-2.888c0-3.42-2.301-6.491-5.663-7.819zM8.375 40.031V36.22c-1.155 0-2.094.855-2.094 1.906s.94 1.906 2.094 1.906zm50.945 7.933l-.177.376c-1.168 2.48-3.837 4.082-6.8 4.082-2.962 0-5.63-1.602-6.799-4.082l-.174-.371a9.395 9.395 0 00-.93.576c1.68 1.821 2.67 4.163 2.67 6.708v2.888h10.468v-3.813h2.094v3.813h4.188v-2.888c0-3.025-1.8-5.774-4.54-7.289z" fill="#fff"/><path d="M6.281 33.836c0 .325.035.645.09.963a4.456 4.456 0 012.004-.486h.149c.468-1.64 2.093-2.86 4.039-2.86h.56l.31.424c1.117 1.525 2.985 2.436 4.997 2.436h2.507c.73 0 1.406.185 2.005.486.055-.318.09-.638.09-.963 0-3.416-3.053-6.195-6.805-6.195h-3.141c-3.752 0-6.805 2.779-6.805 6.195zM34.958 3.202a3.328 3.328 0 00-2.914-.001L3.14 17.72v2.296h3.14v-1.512L33.5 4.627l27.219 13.878v1.51h3.14V17.72L34.96 3.202zm-14.02 33.017v3.812c1.154 0 2.093-.855 2.093-1.906s-.939-1.906-2.093-1.906zm17.194 8.855a12.27 12.27 0 013.094 1.069 4.38 4.38 0 00.649-2.3v-8.577c0-4.205-3.757-7.625-8.375-7.625s-8.375 3.42-8.375 7.625v8.578c0 .819.223 1.6.65 2.299a12.34 12.34 0 013.094-1.069c.39-.078.693-.346.789-.7l.08-.288c-1.504-.839-2.52-2.335-2.52-4.055v-5.718h1.048c1.615 0 3.115-.732 4.011-1.955l.176-.24v-2.571h2.094v2.57l.176.24c.896 1.224 2.396 1.956 4.011 1.956h1.047v5.718c0 1.72-1.015 3.216-2.518 4.054l.079.29c.097.353.4.621.79.7zm-24.522-.277c-.252 0-.493-.036-.735-.067l-.25.909 2.031 3.698 2.031-3.698-.25-.91c-.242.032-.483.068-.734.068H13.61z" fill="#fff"/><path d="M18.844 40.032v-3.813h-.414c-2.497 0-4.829-1.039-6.358-2.806-.919.201-1.603.956-1.603 1.853v4.766c0 1.576 1.409 2.859 3.14 2.859h2.094c1.732 0 3.14-1.283 3.14-2.86z" fill="#fff"/></svg>