<svg width="58" height="53" fill="none" xmlns="http://www.w3.org/2000/svg"><path d="M28.558 10.913c-.577-3.106-3.33-6.211-7.612-8.478C13.74-1.167 8.099.013 5.346 1.037 2.085 2.311.794 4.05.624 4.237L0 4.98l.521.808c.068.062 1.02 1.801 3.025 3.82 5.81 5.93 11.656 8.29 20.526 8.322a5.216 5.216 0 00-.442-.714c-2.379-3.51-6.287-6.397-11.01-8.137l1.29-2.888c5.37 1.988 9.856 5.31 12.575 9.348l.612.931c1.325-1.739 1.8-3.633 1.461-5.558zM57.49 4.236C53.695.074 45.712-1.897 37.02 2.466c-4.248 2.236-7 5.341-7.578 8.446-.34 1.926.136 3.82 1.461 5.56l.612-.932c2.719-4.037 7.204-7.36 12.574-9.348L45.38 9.08c-4.723 1.74-8.631 4.627-10.976 8.106-.17.248-.34.497-.476.745 8.87-.031 14.715-2.391 20.526-8.323 2.005-2.018 3.07-3.757 3.138-3.82L58 4.982l-.51-.745zM58 53H0v-1.656c0-7.45 8.264-12.746 15.886-10.245 2.74-4.195 7.723-6.835 13.114-6.835 5.391 0 10.374 2.64 13.114 6.835C49.734 38.6 58 43.892 58 51.344V53z" fill="#fff"/><path d="M33.928 17.93c-2.073 3.262-3.127 7.268-3.229 11.926v1.273a15.605 15.605 0 00-3.398 0v-1.273c-.102-4.69-1.156-8.695-3.229-11.925 0 0 2.821-1.15 3.025-1.46A21.879 21.879 0 0129 20.322a20.862 20.862 0 011.903-3.85c.204.31 3.025 1.459 3.025 1.459z" fill="#fff"/></svg>