<svg width="69" height="62" fill="none" xmlns="http://www.w3.org/2000/svg"><path d="M9.002 16.511C4.038 16.511 0 20.14 0 24.601c0 4.46 4.038 8.088 9.002 8.088s9.003-3.629 9.003-8.089c0-4.46-4.039-8.089-9.003-8.089zm0 11.053c-1.821 0-3.298-1.327-3.298-2.964s1.477-2.964 3.298-2.964c1.822 0 3.298 1.327 3.298 2.964s-1.476 2.964-3.298 2.964zm9.003 16.85c0-4.46-4.039-8.089-9.003-8.089S0 39.954 0 44.415c0 4.46 4.038 8.088 9.002 8.088s9.003-3.628 9.003-8.089zm-9.003 2.964c-1.821 0-3.298-1.327-3.298-2.964 0-1.636 1.477-2.963 3.298-2.963 1.822 0 3.298 1.327 3.298 2.963 0 1.637-1.476 2.964-3.298 2.964z" fill="#fff"/><path d="M20.64 19.311H31v3.631h-9.085c.085.542.13 1.095.13 1.658 0 3.136-1.377 5.988-3.618 8.094H65.38a11.714 11.714 0 002.652-3.665H49.333V25.4H68.97c.02-.265.031-.53.031-.799 0-6.463-5.851-11.72-13.043-11.72h-16.11l-6.42-6.946h-8.694v6.946H9.003c5.075 0 9.482 2.619 11.637 6.431zm18.783 6.087h5.608v3.631h-5.608V25.4zm9.811 23.99v-3.63h19.68c.056-.441.086-.89.086-1.344 0-3.134-1.377-5.984-3.615-8.089H18.432a11.7 11.7 0 012.673 3.719H31v3.631h-8.98c.017.245.027.49.027.74 0 6.222-5.425 11.327-12.248 11.697l46.159.022c5.214 0 9.722-2.763 11.809-6.746H49.234zm-4.508 0H38.85v-3.63h5.876v3.63z" fill="#fff"/></svg>