<svg width="61" height="57" fill="none" xmlns="http://www.w3.org/2000/svg"><path d="M59.281 25.955H47.094l-5.446 5.09h9.549a3.413 3.413 0 011.453.332l6.631-5.422zM31.59 49.366h4.358v2.036h-4.359v-2.036zm22.874-15.267v18.734l6.21-5.802a.967.967 0 00.326-.718V27.255l-6.833 5.587c.195.394.296.823.297 1.257zM24.727 55.182l.02-.017a.983.983 0 00.307-.71V34.098c0-.562-.488-1.018-1.09-1.018H1.09c-.602 0-1.09.456-1.09 1.018v20.357c0 .562.488 1.018 1.09 1.018h22.874c.286 0 .56-.104.763-.29zm-13.834-3.78c0 1.124-.976 2.035-2.179 2.035H4.357c-1.203 0-2.179-.911-2.179-2.035v-2.036c0-1.124.976-2.036 2.18-2.036h4.356c1.203 0 2.179.912 2.179 2.036v2.036zm10.893 2.035h-3.268c-.602 0-1.09-.455-1.09-1.017 0-.563.488-1.018 1.09-1.018h3.268c.601 0 1.089.455 1.089 1.018 0 .562-.488 1.017-1.09 1.017zm0-4.07h-3.268c-.602 0-1.09-.457-1.09-1.019 0-.562.488-1.018 1.09-1.018h3.268c.601 0 1.089.456 1.089 1.018s-.488 1.018-1.09 1.018z" fill="#fff"/><path d="M4.357 49.366h4.358v2.036H4.357v-2.036zm47.59 5.821l.012-.02.02-.017a.985.985 0 00.307-.695V34.098c0-.562-.488-1.018-1.09-1.018H28.323c-.602 0-1.09.456-1.09 1.018v20.357c0 .562.488 1.018 1.09 1.018h22.875a1.13 1.13 0 00.75-.286zm-13.822-3.785c0 1.124-.975 2.035-2.179 2.035H31.59c-1.203 0-2.178-.911-2.178-2.035v-2.036c0-1.124.975-2.036 2.178-2.036h4.357c1.204 0 2.179.912 2.179 2.036v2.036zm10.893 2.035H45.75c-.602 0-1.09-.455-1.09-1.017 0-.563.488-1.018 1.09-1.018h3.268c.601 0 1.09.455 1.09 1.018 0 .562-.489 1.017-1.09 1.017zm0-4.07H45.75c-.602 0-1.09-.457-1.09-1.019 0-.562.488-1.018 1.09-1.018h3.268c.601 0 1.09.456 1.09 1.018s-.489 1.018-1.09 1.018zm-9.44-42.418l6.632-5.422h-8.8l-7.002 5.09h7.717a3.415 3.415 0 011.453.332zM25.387 1.82a1.071 1.071 0 01-.154.122l-7.121 4.674h8.747l7.001-5.09h-7.717a1.097 1.097 0 00-.756.294zm22.215 20.777a.966.966 0 00.327-.713V2.827l-6.834 5.587c.195.394.297.822.298 1.256v18.738l6.209-5.811zm-36.376 3.652a1.07 1.07 0 01-.153.122L3.95 31.045h8.232a2.844 2.844 0 01-.2-1.018v-4.071a1.097 1.097 0 00-.757.293zm7.292-1.311h4.358v2.035h-4.358v-2.035z" fill="#fff"/><path d="M15.25 31.045h22.875c.285 0 .56-.104.762-.29l.022-.02a.978.978 0 00.305-.708V9.67c0-.562-.487-1.018-1.09-1.018H15.25c-.602 0-1.09.456-1.09 1.018v20.357c0 .562.488 1.018 1.09 1.018zm17.429-8.143h3.267c.602 0 1.09.456 1.09 1.018s-.488 1.018-1.09 1.018H32.68c-.602 0-1.09-.456-1.09-1.018s.488-1.018 1.09-1.018zm0 4.071h3.267c.602 0 1.09.456 1.09 1.018s-.488 1.018-1.09 1.018H32.68c-.602 0-1.09-.456-1.09-1.018s.488-1.018 1.09-1.018zm-16.34-2.035c0-1.125.976-2.036 2.179-2.036h4.357c1.203 0 2.179.911 2.179 2.036v2.035c0 1.125-.976 2.036-2.18 2.036h-4.356c-1.203 0-2.179-.911-2.179-2.036v-2.035z" fill="#fff"/></svg>