<svg width="23" height="23" fill="none" xmlns="http://www.w3.org/2000/svg"><path d="M19.645 2.604h-.673v16.522a1.994 1.994 0 01-1.991 1.991H4.748v.612c0 .702.57 1.271 1.271 1.271h13.623c.702 0 1.27-.57 1.27-1.27V3.873c0-.701-.566-1.27-1.267-1.27z" fill="#1B1B1B"/><path d="M10.167 20.396h6.812c.7 0 1.27-.569 1.27-1.27V1.27A1.27 1.27 0 0016.98 0H7.902v.42c.005.044.007.09.007.135v3.48a1.79 1.79 0 01-1.79 1.79H2.64c-.035 0-.074-.003-.11-.005h-.442v13.306c0 .701.57 1.27 1.27 1.27h6.81zm.257-4.318H5.983a.6.6 0 010-1.201h4.443a.6.6 0 11-.002 1.2zm4.443-3.065H5.983a.6.6 0 010-1.2h8.884a.6.6 0 010 1.2zM5.983 8.558h8.884a.6.6 0 010 1.2H5.983a.6.6 0 010-1.2z" fill="#1B1B1B"/><path d="M2.64 5.104h3.49a1.066 1.066 0 001.056-1.057V.555a.535.535 0 00-.913-.377L2.26 4.19a.535.535 0 00.38.913z" fill="#1B1B1B"/></svg>