<svg width="30" height="30" fill="none" xmlns="http://www.w3.org/2000/svg"><path d="M17.637 15a2.637 2.637 0 11-5.274 0 2.637 2.637 0 015.274 0z" fill="#85BF2D"/><path d="M19.453 7.031h-8.906a3.52 3.52 0 00-3.516 3.516v8.906a3.52 3.52 0 003.516 3.516h8.906a3.52 3.52 0 003.516-3.516v-8.906a3.52 3.52 0 00-3.516-3.516zM15 19.395A4.4 4.4 0 0110.605 15 4.4 4.4 0 0115 10.605 4.4 4.4 0 0119.395 15 4.4 4.4 0 0115 19.395zm5.04-8.555a.879.879 0 11-.001-1.758.879.879 0 010 1.758z" fill="#85BF2D"/><path d="M22.09 0H7.91C3.55 0 0 3.549 0 7.91v14.18C0 26.45 3.549 30 7.91 30h14.18c4.36 0 7.91-3.549 7.91-7.91V7.91C30 3.55 26.451 0 22.09 0zm2.637 19.453a5.28 5.28 0 01-5.274 5.274h-8.906a5.28 5.28 0 01-5.274-5.274v-8.906a5.28 5.28 0 015.274-5.274h8.906a5.28 5.28 0 015.274 5.274v8.906z" fill="#85BF2D"/></svg>