<svg width="32" height="33" fill="none" xmlns="http://www.w3.org/2000/svg"><g clip-path="url(#clip0_5_1009)"><path d="M25.856 25.327a12.532 12.532 0 00-8.602 2.703v-1.339l7.028-6.905a1.22 1.22 0 00.367-.87V2.045c0-.68-.56-1.232-1.253-1.232-.692 0-1.254.552-1.254 1.232v2.428l-4.888 4.803V2.045c0-.68-.562-1.232-1.254-1.232s-1.254.552-1.254 1.232v7.231L9.858 4.473V2.045c0-.68-.562-1.232-1.254-1.232s-1.253.552-1.253 1.232v16.87c0 .327.132.64.367.871l7.028 6.905v1.34a12.53 12.53 0 00-8.602-2.704 1.24 1.24 0 00-1.173 1.305 1.246 1.246 0 001.33 1.153 10 10 0 018.685 4.045c.497.672 1.525.68 2.028 0a10 10 0 018.686-4.045 1.245 1.245 0 001.329-1.153 1.24 1.24 0 00-1.173-1.305zm-8.602-12.568l4.888-4.803v3.483l-4.888 4.803v-3.483zm0 6.966l4.888-4.803v3.483l-4.888 4.803v-3.483zm-2.508 3.483l-4.888-4.803v-3.483l4.888 4.803v3.483zm0-6.966l-4.888-4.803V7.956l4.888 4.803v3.483z" fill="#D87D1A"/></g><defs><clipPath id="clip0_5_1009"><path fill="#fff" transform="translate(0 .813)" d="M0 0h32v31.524H0z"/></clipPath></defs></svg>