<svg width="32" height="37" fill="none" xmlns="http://www.w3.org/2000/svg"><g clip-path="url(#clip0_5_1025)" fill="#85BF2D"><path d="M6.901 19.504c.15.217.293.45.43.697.183.334.35.69.5 1.063.15-.373.317-.729.501-1.063.136-.247.28-.48.429-.697h-1.86zm.001 13.901H8.76a8.192 8.192 0 01-.429-.697 9.795 9.795 0 01-.5-1.063 10.1 10.1 0 01-.502 1.063c-.136.247-.28.48-.428.697zm17.144-16.057c1.141 0 1.949-1.159 2.329-1.85.74-1.346 1.148-3.157 1.148-5.1 0-1.944-.408-3.755-1.148-5.101-.38-.691-1.188-1.85-2.33-1.85H11.32c.149.217.292.45.428.697.928 1.687 1.439 3.908 1.439 6.254 0 2.345-.511 4.566-1.439 6.252a8.24 8.24 0 01-.428.698h12.726zM19.47 13.74h-4.122v-2.157h4.122v2.156zm4.962-5.257H20.31V6.327h4.122v2.156zM5.504 15.498c.38.691 1.187 1.85 2.329 1.85 1.141 0 1.95-1.159 2.329-1.85.74-1.346 1.148-3.157 1.148-5.1 0-1.944-.408-3.755-1.148-5.101-.38-.69-1.188-1.85-2.33-1.85-1.14 0-1.948 1.16-2.328 1.85-.74 1.346-1.149 3.157-1.149 5.1 0 1.944.408 3.755 1.149 5.101zm2.329-8.442c.969 0 1.548 1.249 1.548 3.342 0 2.092-.579 3.341-1.548 3.341-.97 0-1.548-1.249-1.548-3.341 0-2.093.579-3.342 1.548-3.342zm7.901 12.448c.15.217.293.45.43.697.927 1.687 1.438 3.907 1.438 6.253s-.511 4.567-1.439 6.253c-.136.248-.28.48-.429.697H28.46c1.142 0 1.95-1.158 2.33-1.849.74-1.346 1.148-3.158 1.148-5.1 0-1.944-.408-3.755-1.149-5.102-.38-.69-1.187-1.85-2.329-1.85H15.734v.001zm9.628 3.902h4.122v2.156h-4.122v-2.156zM20.4 28.662h4.122v2.156H20.4v-2.156zm-8.152 4.742c1.141 0 1.949-1.158 2.329-1.849.74-1.346 1.148-3.158 1.148-5.1 0-1.944-.408-3.755-1.148-5.102-.38-.69-1.188-1.85-2.33-1.85-1.141 0-1.949 1.16-2.329 1.85-.74 1.346-1.148 3.158-1.148 5.101s.408 3.755 1.148 5.101c.38.69 1.188 1.85 2.33 1.85zm-1.548-6.95c0-2.092.579-3.342 1.548-3.342.969 0 1.547 1.25 1.547 3.342 0 2.093-.578 3.342-1.547 3.342-.97 0-1.548-1.25-1.548-3.342zm-7.285 6.95c1.141 0 1.949-1.158 2.329-1.849.74-1.346 1.148-3.158 1.148-5.1 0-1.944-.408-3.755-1.148-5.102-.38-.69-1.188-1.85-2.33-1.85-1.14 0-1.948 1.16-2.328 1.85-.74 1.346-1.149 3.158-1.149 5.101s.408 3.755 1.149 5.101c.38.69 1.187 1.85 2.329 1.85zm-1.548-6.95c0-2.092.579-3.342 1.548-3.342.969 0 1.547 1.25 1.547 3.342 0 2.093-.578 3.342-1.547 3.342-.97 0-1.548-1.25-1.548-3.342z"/></g><defs><clipPath id="clip0_5_1025"><path fill="#fff" d="M0 0h32v36.77H0z"/></clipPath></defs></svg>