<svg width="61" height="61" fill="none" xmlns="http://www.w3.org/2000/svg"><path d="M20.91 37.768a1.787 1.787 0 01-3.575 0V35.98h-3.574v10.723h10.722V35.98H20.91v1.788z" fill="#85BF2D"/><path d="M13.76 32.406h12.51c.988 0 1.788.8 1.788 1.787V61h4.765V48.49c0-.987.8-1.787 1.787-1.787h12.51V25.258H13.76v7.148z" fill="#85BF2D"/><path d="M43.546 52.065a1.787 1.787 0 01-3.574 0v-1.788h-3.575V61H47.12V50.277h-3.574v1.788zm-22.636 0a1.787 1.787 0 01-3.575 0v-1.788h-3.574V61h10.722V50.277H20.91v1.788z" fill="#85BF2D"/><path d="M59.89 13.153L31.177.159a1.787 1.787 0 00-1.476.001L1.108 13.154A1.787 1.787 0 00.06 14.781v44.432C.06 60.2.86 61 1.847 61h8.34V23.47c0-.986.8-1.787 1.787-1.787h36.933c.987 0 1.788.8 1.788 1.788V61h8.459c.986 0 1.787-.8 1.787-1.787V14.78c0-.702-.411-1.339-1.05-1.628zm-24.088 2.573H25.079a1.787 1.787 0 010-3.574h10.723a1.787 1.787 0 010 3.575z" fill="#85BF2D"/></svg>