<svg width="61" height="61" fill="none" xmlns="http://www.w3.org/2000/svg"><g clip-path="url(#clip0_5_1096)" fill="#85BF2D"><path d="M50.493 10.275C45.558 5.34 38.996 2.623 32.017 2.623c-.913 0-1.828.047-2.736.142-2.334-4.838-17.14-2.72-20.485 1.7C-.854 17.387.69 55.578 17.657 60.61c3.804 1.086 14.585-.056 13.616-4.002l-2.942-9.847c-.968-3.294-.439-2.264-5.03-2.12-1.113.036-3.624.543-4.521-.941-1.866-3.114-2.87-11.44-2.727-14.625.072-1.52.754-8.435 1.938-9.702 1.793-1.955 5.461.89 7.686-4.034l3.395-8.95c.973-.127 1.96-.19 2.945-.19 12.435 0 22.552 10.116 22.552 22.55 0 5.146-1.687 9.99-4.879 14.01a22.718 22.718 0 01-9.536 7.027l.454-1.184a1.788 1.788 0 10-3.34-1.281l-1.59 4.143a3.12 3.12 0 00.09 2.432 3.12 3.12 0 001.814 1.62l4.35 1.472a1.786 1.786 0 002.267-1.12 1.789 1.789 0 00-1.12-2.268l-1.532-.518a26.317 26.317 0 0010.945-8.099c3.699-4.659 5.653-10.273 5.653-16.233 0-6.98-2.717-13.54-7.652-18.476z"/><path d="M34.844 17.36c-6.899 0-12.512 5.613-12.512 12.512 0 6.898 5.613 12.51 12.512 12.51 6.898 0 12.51-5.612 12.51-12.51 0-6.9-5.612-12.511-12.51-12.511zm1.788 17.843a1.789 1.789 0 01-3.577 0v-4.586a1.788 1.788 0 013.577 0v4.586zm0-9.496a1.788 1.788 0 01-3.577 0v-1.192a1.789 1.789 0 013.577 0v1.192z"/></g><defs><clipPath id="clip0_5_1096"><path fill="#fff" d="M0 0h61v61H0z"/></clipPath></defs></svg>