<svg width="61" height="61" fill="none" xmlns="http://www.w3.org/2000/svg"><g clip-path="url(#clip0_5_1075)" fill="#85BF2D"><path d="M48.669 8.149V8.14H12.331v.008l-3.258 4.936v34.83l3.258 4.936v.008H48.67v-.008l3.258-4.936v-34.83L48.67 8.15zm-9.273 33.034H21.604v-3.574h17.792v3.574zm.524-8.413c-1.658 1.237-3.694 1.595-5.496 1.595-1.673 0-3.144-.309-3.924-.51-.78.201-2.25.51-3.924.51-1.802 0-3.838-.358-5.495-1.596-3.714-2.772-3.733-8.706-3.723-9.374l.02-1.304 1.248-.379c.631-.192 6.277-1.793 9.983.974a7.533 7.533 0 011.891 2.102 7.54 7.54 0 011.892-2.102c3.706-2.767 9.351-1.166 9.983-.974l1.248.379.02 1.304c.01.668-.01 6.602-3.723 9.375zM48.669 0H12.33v4.567h36.34V0zm0 56.433H12.33V61h36.34v-4.567z"/><path d="M26.47 25.55c-1.431-1.069-3.815-.983-5.453-.716.194 1.662.77 4.003 2.202 5.072 1.424 1.063 3.814.96 5.421.69-.18-1.65-.74-3.98-2.17-5.046zm8.06 0c-1.43 1.066-1.989 3.396-2.17 5.048 1.62.276 3.991.375 5.421-.693 1.425-1.063 2.004-3.424 2.2-5.072-1.636-.266-4.02-.352-5.451.717z"/></g><defs><clipPath id="clip0_5_1075"><path fill="#fff" d="M0 0h61v61H0z"/></clipPath></defs></svg>