<svg width="69" height="69" fill="none" xmlns="http://www.w3.org/2000/svg"><path d="M46.553 53.674h10.212l-1.078-7.412a5.637 5.637 0 10-8.047 0l-1.087 7.412zM62.51 55.83h-21.7a2.71 2.71 0 00-2.713 2.712v7.819h27.13v-7.819a2.711 2.711 0 00-2.717-2.711zm-5.212 7.53H46.022a1.078 1.078 0 110-2.157h11.276a1.078 1.078 0 110 2.156zM14.006 6.353l-7.648 7.65h7.648v-7.65z" fill="#85BF2D"/><path d="M16.162 5.275v9.806a1.078 1.078 0 01-1.078 1.078H5.283v46.56h30.662v-4.177a4.874 4.874 0 014.868-4.869h3.566l.989-6.766a7.79 7.79 0 016.296-12.382V5.275H16.162zm9.242 7.411h18.192a1.078 1.078 0 010 2.156H25.404a1.079 1.079 0 010-2.156zm6.733 34.401c-.357.922-.612 1.88-.764 2.857-.466 2.316-.88 4.313-2.466 4.245-1.415-.067-1.846-1.792-2.385-3.969a23.633 23.633 0 00-.676-2.359 26.83 26.83 0 00-.141 3.203c-.015 2.68-.028 5.21-1.279 6.31a2.08 2.08 0 01-1.401.529c-.101 0-.202-.007-.301-.02-2.357-.289-2.868-2.862-3.363-5.353-.686-3.45-1.294-5.526-3.97-5.282a2.263 2.263 0 00-1.89.993c-.917 1.55.08 4.686.5 5.663a1.077 1.077 0 01-1.388 1.454 1.079 1.079 0 01-.59-.6c-.215-.489-2.013-4.85-.378-7.615a4.325 4.325 0 013.54-2.042c4.836-.466 5.702 4.032 6.291 7.008.345 1.737.701 3.534 1.51 3.633.539-.381.56-3.292.567-4.692.015-2.857.027-5.113 1.516-5.75a1.726 1.726 0 011.455.03c1.151.573 1.588 2.332 2.095 4.367.095.385.215.855.334 1.294.12-.5.23-1.051.315-1.47.491-2.438.915-4.546 2.582-4.546a1.078 1.078 0 01.295 2.115l-.008-.003zm5.43-6.393H12.734a1.078 1.078 0 010-2.157h24.831a1.078 1.078 0 110 2.157zm6.636-8.617H12.735a1.078 1.078 0 010-2.156h31.468a1.078 1.078 0 010 2.156zm0-8.617H12.735a1.078 1.078 0 010-2.156h31.468a1.078 1.078 0 010 2.156z" fill="#85BF2D"/></svg>