<svg width="61" height="61" fill="none" xmlns="http://www.w3.org/2000/svg"><path d="M60.993 50.108c-.166-1.886-1.144-3.62-2.753-4.884-1.534-1.205-3.516-1.869-5.58-1.869-2.476 0-4.783.964-6.342 2.564-1.348-.85-2.968-1.334-4.668-1.369-1.768-.037-3.477.413-4.901 1.266-1.556-1.55-3.804-2.461-6.249-2.461s-4.693.91-6.249 2.461c-1.424-.852-3.128-1.303-4.9-1.266-1.7.035-3.321.52-4.669 1.369-1.56-1.6-3.866-2.564-6.342-2.564-2.064 0-4.046.664-5.58 1.869C1.15 46.487.173 48.222.007 50.109a1.806 1.806 0 00-.007.156v8.936c0 .987.8 1.787 1.787 1.787h57.426c.987 0 1.787-.8 1.787-1.787v-8.936a1.65 1.65 0 00-.007-.157zM11.91 37.136a11.26 11.26 0 005.666 1.5c2.054 0 4.166-.531 6.175-1.582 0 0 4.919 2.826 4.962 2.847v.002h.005a13.082 13.082 0 013.57 0V33.45l5.845-3.374c2.008 1.05 4.12 1.582 6.175 1.582 1.992 0 3.93-.498 5.665-1.5 3.811-2.2 6-6.456 5.857-11.385a1.787 1.787 0 00-.848-1.469c-4.196-2.588-8.977-2.82-12.787-.62-3.527 2.037-5.664 5.835-5.85 10.296l-4.058 2.343v-8.118c3.771-2.391 5.992-6.14 5.992-10.213 0-4.4-2.591-8.425-6.93-10.765a1.787 1.787 0 00-1.697 0c-4.34 2.34-6.93 6.364-6.93 10.765 0 4.073 2.22 7.822 5.991 10.213V35.79l-3.175-1.833c-.186-4.461-2.322-8.259-5.85-10.295-3.81-2.2-8.59-1.969-12.787.62-.512.315-.83.867-.848 1.469C5.91 30.68 8.1 34.936 11.91 37.136z" fill="#85BF2D"/></svg>