<svg width="28" height="28" fill="none" xmlns="http://www.w3.org/2000/svg"><g clip-path="url(#clip0_5_946)"><path d="M7.4 23.98l.459.227c1.907 1.131 4.043 1.66 6.18 1.66 6.714 0 12.207-5.43 12.207-12.067 0-3.167-1.297-6.259-3.586-8.521a12.191 12.191 0 00-8.621-3.545c-6.714 0-12.208 5.43-12.131 12.142 0 2.262.686 4.449 1.83 6.334l.306.453-1.22 4.449L7.4 23.981z" fill="#85BF2D"/><path d="M23.957 4.072C21.363 1.432 17.777 0 14.115 0 6.333 0 .076 6.26.153 13.876c0 2.413.686 4.75 1.83 6.862L0 27.902l7.4-1.885c2.06 1.131 4.35 1.66 6.638 1.66C21.744 27.676 28 21.416 28 13.8c0-3.695-1.45-7.164-4.043-9.728zm-9.842 21.266c-2.06 0-4.12-.527-5.875-1.583l-.458-.226-4.425 1.13 1.144-4.298-.305-.452C.84 14.555 2.441 7.466 7.935 4.148 13.428.83 20.523 2.413 23.88 7.843c3.356 5.43 1.754 12.443-3.739 15.76-1.755 1.132-3.891 1.735-6.027 1.735zm6.714-8.37l-.84-.377s-1.22-.528-1.983-.905c-.077 0-.153-.076-.23-.076-.228 0-.38.076-.533.151 0 0-.076.075-1.145 1.282a.42.42 0 01-.381.226h-.077c-.076 0-.228-.075-.305-.15l-.381-.151c-.84-.377-1.602-.83-2.213-1.433-.152-.15-.381-.302-.534-.453-.534-.527-1.068-1.13-1.45-1.81l-.076-.15c-.076-.076-.076-.151-.152-.302 0-.15 0-.302.076-.377 0 0 .305-.377.534-.603.153-.151.229-.377.382-.528.152-.226.228-.528.152-.754-.076-.377-.992-2.413-1.22-2.866-.153-.226-.306-.302-.535-.377H9.08c-.152 0-.305.075-.458.075l-.076.076c-.153.075-.305.226-.458.301-.152.151-.229.302-.381.453-.534.679-.84 1.508-.84 2.338 0 .603.153 1.206.382 1.734l.076.226a12.568 12.568 0 002.823 3.846l.306.302c.228.226.457.377.61.603 1.602 1.358 3.433 2.338 5.493 2.866.229.075.534.075.763.15h.763c.381 0 .84-.15 1.145-.3.228-.152.38-.152.534-.302l.152-.151c.153-.151.305-.227.458-.377.152-.151.305-.302.381-.453.153-.302.23-.679.306-1.056v-.527s-.077-.076-.23-.151z" fill="#fff"/></g><defs><clipPath id="clip0_5_946"><path fill="#fff" d="M0 0h28v28H0z"/></clipPath></defs></svg>