<svg width="63" height="63" fill="none" xmlns="http://www.w3.org/2000/svg"><g clip-path="url(#clip0_5_1105)" fill="#85BF2D"><path d="M33.35 0c-4.073 0-7.507 3.434-7.507 7.506s3.434 7.506 7.506 7.506 7.383-3.434 7.383-7.506S37.421 0 33.349 0zm8.193 15.012c-2.028 2.249-4.934 3.691-8.194 3.691-3.26 0-6.288-1.442-8.317-3.691-1.77 1.963-2.88 4.536-2.88 7.383v1.845c0 1.02.825 1.846 1.846 1.846h18.58c1.02 0 1.845-.826 1.845-1.846v-1.845c0-2.847-1.109-5.42-2.88-7.383zM17.835 56.651L8.43 37.794a3.691 3.691 0 00-4.941-1.66l-2.46 1.216a1.847 1.847 0 00-.83 2.48l11.073 22.15a1.848 1.848 0 002.47.829l2.427-1.202a3.691 3.691 0 001.665-4.956zM61.49 30.479a3.68 3.68 0 00-4.873.48l-10.09 12.403c-.7.738-2.03 1.18-2.731 1.18h-8.601a1.828 1.828 0 01-1.846-1.845c0-1.034.812-1.846 1.846-1.846h7.383a3.702 3.702 0 003.691-3.69 3.702 3.702 0 00-3.691-3.692h-9.672c-.92 0-1.378-.584-2.104-1.219-2.856-2.57-7.13-3.808-11.458-2.804-2.403.556-4.023 1.527-5.667 2.829l-.054-.045-2.67 2.35 10.492 21.037h21.133c3.47 0 6.792-1.661 8.86-4.43l10.827-15.503c1.218-1.625.886-3.987-.775-5.205z"/></g><defs><clipPath id="clip0_5_1105"><path fill="#fff" d="M0 0h63v63H0z"/></clipPath></defs></svg>